<svg width="24" height="24" viewBox="0 0 24 24" fill="none" xmlns="http://www.w3.org/2000/svg">
<path fill-rule="evenodd" clip-rule="evenodd" d="M4.7998 4.7999C4.7998 4.16338 5.05266 3.55293 5.50275 3.10285C5.95284 2.65276 6.56329 2.3999 7.1998 2.3999H12.703C13.3395 2.40004 13.9498 2.65298 14.3998 3.1031L18.4966 7.1999C18.9467 7.64988 19.1997 8.26023 19.1998 8.8967V19.1999C19.1998 19.8364 18.9469 20.4469 18.4969 20.897C18.0468 21.347 17.4363 21.5999 16.7998 21.5999H7.1998C6.56329 21.5999 5.95284 21.347 5.50275 20.897C5.05266 20.4469 4.7998 19.8364 4.7998 19.1999V4.7999ZM7.1998 11.9999C7.1998 11.6816 7.32623 11.3764 7.55128 11.1514C7.77632 10.9263 8.08155 10.7999 8.3998 10.7999H15.5998C15.9181 10.7999 16.2233 10.9263 16.4483 11.1514C16.6734 11.3764 16.7998 11.6816 16.7998 11.9999C16.7998 12.3182 16.6734 12.6234 16.4483 12.8484C16.2233 13.0735 15.9181 13.1999 15.5998 13.1999H8.3998C8.08155 13.1999 7.77632 13.0735 7.55128 12.8484C7.32623 12.6234 7.1998 12.3182 7.1998 11.9999ZM8.3998 15.5999C8.08155 15.5999 7.77632 15.7263 7.55128 15.9514C7.32623 16.1764 7.1998 16.4816 7.1998 16.7999C7.1998 17.1182 7.32623 17.4234 7.55128 17.6484C7.77632 17.8735 8.08155 17.9999 8.3998 17.9999H15.5998C15.9181 17.9999 16.2233 17.8735 16.4483 17.6484C16.6734 17.4234 16.7998 17.1182 16.7998 16.7999C16.7998 16.4816 16.6734 16.1764 16.4483 15.9514C16.2233 15.7263 15.9181 15.5999 15.5998 15.5999H8.3998Z" fill="#99A1AF"/>
</svg>
