<svg width="24" height="24" viewBox="0 0 24 24" fill="none" xmlns="http://www.w3.org/2000/svg">
<path fill-rule="evenodd" clip-rule="evenodd" d="M8.40021 2.3999C8.16291 2.39995 7.93095 2.47036 7.73366 2.60222C7.53637 2.73408 7.3826 2.92148 7.2918 3.14072C7.201 3.35996 7.17723 3.6012 7.22351 3.83394C7.26979 4.06668 7.38404 4.28048 7.55181 4.4483L8.40021 5.2967V9.8063C8.40015 10.1245 8.27367 10.4297 8.04861 10.6547L3.24861 15.4547C0.980613 17.7227 2.58741 21.5999 5.79381 21.5999H18.2054C21.413 21.5999 23.0198 17.7227 20.7518 15.4547L15.9518 10.6547C15.7268 10.4297 15.6003 10.1245 15.6002 9.8063V5.2967L16.4486 4.4483C16.6164 4.28048 16.7306 4.06668 16.7769 3.83394C16.8232 3.6012 16.7994 3.35996 16.7086 3.14072C16.6178 2.92148 16.4641 2.73408 16.2668 2.60222C16.0695 2.47036 15.8375 2.39995 15.6002 2.3999H8.40021ZM10.8002 9.8063V4.7999H13.2002V9.8063C13.2007 10.7606 13.5801 11.6756 14.255 12.3503L15.4874 13.5839C14.6244 13.3835 13.7227 13.4258 12.8822 13.7063L12.3182 13.8935C11.3329 14.222 10.2676 14.222 9.28221 13.8935L8.60661 13.6691C8.56144 13.6537 8.51582 13.6397 8.46981 13.6271L9.74541 12.3515C10.4206 11.6765 10.8 10.761 10.8002 9.8063Z" fill="#99A1AF"/>
</svg>
